<?xml version="1.0" encoding="utf-8"?>
<!-- Generator: Adobe Illustrator 15.0.1, SVG Export Plug-In . SVG Version: 6.00 Build 0)  -->
<!DOCTYPE svg PUBLIC "-//W3C//DTD SVG 1.1//EN" "http://www.w3.org/Graphics/SVG/1.1/DTD/svg11.dtd">
<svg version="1.1" id="Layer_1" xmlns="http://www.w3.org/2000/svg" xmlns:xlink="http://www.w3.org/1999/xlink" x="0px" y="0px"
	 width="677px" height="300px" viewBox="0 0 677 300" enable-background="new 0 0 677 300" xml:space="preserve">
<g>
	<g>
		<path fill="#FFFFFF" d="M278.353,82.998l31.93,79.541h-17.841l-6.704-17.158h-30.339l-6.704,17.158h-17.499l32.043-79.541H278.353
			z M260.626,130.723h20l-10.114-26.021L260.626,130.723z"/>
		<path fill="#FFFFFF" d="M314.145,141.631c3.029,2.425,6.42,4.431,10.169,6.022c3.75,1.591,7.48,2.386,11.192,2.386
			c4.848,0,7.272-1.438,7.272-4.318c0-1.438-0.721-2.48-2.158-3.124c-1.44-0.644-3.258-1.174-5.455-1.591
			c-2.197-0.415-4.545-0.87-7.044-1.363c-2.501-0.492-4.849-1.288-7.046-2.387c-2.198-1.097-4.016-2.631-5.454-4.602
			c-1.439-1.969-2.16-4.696-2.16-8.182c0-5.756,2.064-10.454,6.193-14.09c4.128-3.636,9.979-5.454,17.556-5.454
			c3.561,0,6.988,0.454,10.283,1.363c3.296,0.909,6.268,2.008,8.92,3.295v16.931c-2.803-2.575-5.908-4.545-9.317-5.909
			c-3.408-1.363-6.895-2.044-10.454-2.044c-2.727,0-4.621,0.417-5.682,1.249c-1.062,0.835-1.591,1.819-1.591,2.955
			c0,1.289,0.739,2.235,2.216,2.84c1.478,0.607,3.313,1.119,5.512,1.535c2.195,0.416,4.582,0.908,7.158,1.477
			c2.575,0.567,4.96,1.439,7.159,2.613c2.196,1.175,4.033,2.803,5.511,4.886c1.478,2.084,2.216,4.869,2.216,8.352
			c0,3.182-0.607,5.985-1.818,8.408c-1.213,2.426-2.879,4.451-5,6.079c-2.121,1.63-4.621,2.88-7.499,3.75
			c-2.88,0.87-5.947,1.307-9.204,1.307c-4.545,0-8.579-0.474-12.102-1.421c-3.522-0.945-6.647-2.177-9.374-3.692V141.631z"/>
		<path fill="#FFFFFF" d="M422.432,106.406l-23.181,24.884l24.658,31.248h-19.885l-17.158-22.384l-2.841,2.84v19.544h-16.477V82.998
			h16.477v43.407l18.636-19.999H422.432z"/>
		<path fill="#FFFFFF" d="M432.771,82.998h29.089c3.637,0,7.007,0.494,10.114,1.477c3.105,0.986,5.774,2.387,8.01,4.205
			c2.233,1.819,3.978,4.054,5.227,6.705c1.251,2.653,1.876,5.682,1.876,9.09c0,3.561-0.835,6.667-2.5,9.317
			c-1.667,2.653-3.939,4.736-6.817,6.25c4.545,1.591,8.028,4.034,10.453,7.329c2.424,3.295,3.636,7.254,3.636,11.874
			c0,3.637-0.663,6.895-1.988,9.772c-1.325,2.88-3.201,5.323-5.625,7.329c-2.425,2.008-5.396,3.542-8.919,4.602
			c-3.522,1.062-7.442,1.591-11.761,1.591h-30.794V82.998z M460.156,114.701c2.955,0,5.397-0.739,7.329-2.216
			s2.897-3.654,2.897-6.533c0-2.878-0.966-5.056-2.897-6.533c-1.932-1.479-4.374-2.216-7.329-2.216h-10.681v17.499H460.156z
			 M462.543,148.222c3.636,0,6.551-0.833,8.75-2.501c2.195-1.665,3.295-4.127,3.295-7.385c0-3.182-1.1-5.625-3.295-7.33
			c-2.199-1.704-5.114-2.556-8.75-2.556h-13.067v19.771H462.543z"/>
		<path fill="#FFFFFF" d="M496.29,122.769c0-5.833,1.06-11.267,3.181-16.306c2.12-5.037,5.037-9.392,8.75-13.068
			c3.71-3.673,8.067-6.571,13.066-8.692c5.001-2.121,10.379-3.182,16.136-3.182c3.484,0,6.931,0.455,10.341,1.364
			c3.408,0.908,6.705,2.235,9.885,3.977v18.408c-3.031-2.272-6.137-4.015-9.316-5.228c-3.182-1.211-6.63-1.818-10.34-1.818
			c-3.487,0-6.688,0.625-9.603,1.875c-2.916,1.25-5.455,2.994-7.612,5.227c-2.16,2.235-3.846,4.849-5.058,7.84
			c-1.212,2.994-1.819,6.194-1.819,9.603s0.587,6.59,1.763,9.545c1.174,2.954,2.821,5.53,4.942,7.726
			c2.119,2.198,4.66,3.94,7.614,5.227c2.954,1.289,6.211,1.932,9.772,1.932c3.635,0,7.045-0.586,10.225-1.762
			c3.183-1.173,6.364-2.858,9.547-5.056v18.294c-3.487,1.972-6.989,3.353-10.513,4.148c-3.522,0.795-6.874,1.192-10.056,1.192
			c-6.062,0-11.589-1.043-16.59-3.125c-4.999-2.083-9.3-4.96-12.896-8.635c-3.598-3.675-6.402-8.029-8.408-13.068
			C497.293,134.15,496.29,128.677,496.29,122.769z"/>
		<path fill="#FFFFFF" d="M567.308,136.972c3.863,3.562,8.275,6.29,13.237,8.182c4.961,1.895,9.601,2.841,13.92,2.841
			c3.864,0,6.834-0.738,8.919-2.216c2.083-1.478,3.126-3.616,3.126-6.42c0-1.591-0.456-2.916-1.363-3.977
			c-0.909-1.06-2.142-1.949-3.694-2.67c-1.553-0.719-3.352-1.344-5.396-1.875c-2.047-0.528-4.169-1.097-6.364-1.704
			c-2.729-0.681-5.475-1.514-8.239-2.5c-2.765-0.983-5.266-2.31-7.5-3.977c-2.233-1.666-4.053-3.787-5.452-6.363
			c-1.403-2.575-2.104-5.795-2.104-9.659c0-3.787,0.72-7.233,2.16-10.341c1.438-3.105,3.464-5.756,6.077-7.954
			c2.615-2.196,5.739-3.881,9.375-5.057c3.638-1.173,7.614-1.761,11.932-1.761c9.393,0,17.573,2.198,24.544,6.591v18.976
			c-3.712-3.182-7.632-5.605-11.76-7.272c-4.13-1.666-8.353-2.5-12.669-2.5c-4.169,0-7.218,0.777-9.149,2.329
			c-1.932,1.554-2.897,3.542-2.897,5.966c0,1.289,0.399,2.386,1.193,3.295c0.795,0.91,1.835,1.705,3.126,2.387
			c1.286,0.681,2.801,1.269,4.545,1.761c1.74,0.493,3.598,1.004,5.567,1.534c2.878,0.758,5.832,1.63,8.862,2.613
			c3.029,0.986,5.796,2.33,8.296,4.034c2.501,1.705,4.563,3.903,6.193,6.591c1.627,2.69,2.441,6.118,2.441,10.283
			c0,3.789-0.682,7.272-2.045,10.455c-1.363,3.181-3.314,5.908-5.852,8.181c-2.539,2.272-5.624,4.054-9.26,5.341
			c-3.638,1.287-7.727,1.932-12.272,1.932c-5.001,0-9.925-0.588-14.772-1.762c-4.848-1.173-9.09-2.858-12.726-5.056V136.972z"/>
	</g>
	<g>
		<polygon fill="#6BB9DB" points="85.761,99.947 85.761,220.575 189.154,220.575 206.388,237.807 206.388,220.575 206.388,99.947
			"/>
		<rect x="68.529" y="82.715" fill="#71C8B9" width="129.244" height="129.243"/>
		<rect x="51.297" y="65.483" fill="#95CD89" width="137.857" height="137.859"/>
		<g>
			<path fill="#FFFFFF" d="M117.666,102.905c-4.75,0-9.301,1.09-13.655,3.266c-4.354,2.177-8.509,5.195-12.466,9.054v-22.86
				c3.757-2.967,7.915-5.39,12.466-7.271c4.55-1.878,9.797-2.82,15.734-2.82c5.142,0,9.869,0.743,14.174,2.226
				c4.302,1.484,8.014,3.537,11.129,6.158c3.119,2.624,5.568,5.742,7.347,9.354c1.784,3.611,2.672,7.543,2.672,11.797
				c0,5.045-0.888,9.525-2.672,13.431c-1.779,3.91-4.749,7.794-8.904,11.651c-1.386,1.287-2.846,2.524-4.377,3.711
				c-1.536,1.187-2.97,2.425-4.305,3.708c-1.337,1.288-2.427,2.601-3.267,3.936c-0.841,1.335-1.26,2.797-1.26,4.378v2.818H108.91
				v-5.046c0-3.461,1.163-6.95,3.488-10.462c2.322-3.511,5.862-7,10.612-10.464c3.461-2.573,6.012-5.047,7.643-7.422
				c1.635-2.372,2.45-4.944,2.45-7.717c0-3.361-1.436-6.109-4.305-8.235C125.926,103.97,122.217,102.905,117.666,102.905z
				 M107.277,177.263c0-1.679,0.318-3.287,0.964-4.821c0.642-1.534,1.558-2.871,2.747-4.009c1.187-1.135,2.545-2.053,4.08-2.746
				c1.535-0.69,3.192-1.039,4.974-1.039c1.78,0,3.437,0.349,4.972,1.039c1.532,0.693,2.894,1.611,4.081,2.746
				c1.188,1.138,2.102,2.475,2.747,4.009c0.643,1.534,0.965,3.143,0.965,4.821c0,1.684-0.322,3.293-0.965,4.825
				c-0.645,1.535-1.559,2.872-2.747,4.007c-1.187,1.14-2.549,2.053-4.081,2.746c-1.535,0.692-3.192,1.038-4.972,1.038
				c-1.781,0-3.439-0.346-4.974-1.038c-1.535-0.693-2.894-1.606-4.08-2.746c-1.189-1.135-2.104-2.472-2.747-4.007
				C107.596,180.556,107.277,178.946,107.277,177.263z"/>
		</g>
	</g>
	<g>
		<path fill="#FFFFFF" d="M237.719,185.091v29.338h12.274v5.589h-18.261v-34.927H237.719z"/>
		<path fill="#FFFFFF" d="M274.392,218.021c-1.264,0.798-2.694,1.43-4.291,1.896c-1.596,0.466-3.31,0.699-5.139,0.699
			c-2.03,0-3.851-0.325-5.464-0.973c-1.613-0.648-2.993-1.547-4.141-2.694c-1.147-1.148-2.03-2.504-2.645-4.067
			c-0.616-1.562-0.924-3.275-0.924-5.139c0-1.829,0.299-3.525,0.898-5.089c0.599-1.563,1.447-2.911,2.545-4.042
			c1.098-1.13,2.395-2.021,3.892-2.669c1.497-0.649,3.144-0.973,4.939-0.973c1.797,0,3.41,0.315,4.84,0.947
			c1.43,0.633,2.661,1.514,3.692,2.645c1.03,1.132,1.821,2.47,2.369,4.017c0.55,1.546,0.824,3.218,0.824,5.015
			c0,0.399-0.009,0.74-0.025,1.022c-0.017,0.283-0.059,0.607-0.125,0.973h-18.112c0.233,1.697,1.023,3.136,2.371,4.316
			c1.347,1.181,3.169,1.771,5.463,1.771c3.093,0,6.104-1.098,9.031-3.294V218.021z M270.151,205.298
			c-0.167-1.662-0.808-3.019-1.922-4.066c-1.114-1.047-2.537-1.571-4.266-1.571c-0.865,0-1.672,0.158-2.42,0.474
			c-0.748,0.316-1.406,0.741-1.971,1.272c-0.566,0.532-1.022,1.131-1.371,1.797c-0.35,0.665-0.575,1.364-0.675,2.095H270.151z"/>
		<path fill="#FFFFFF" d="M294.1,220.018l-0.049-3.145c-0.865,1.266-1.971,2.204-3.318,2.819c-1.347,0.615-2.787,0.924-4.316,0.924
			c-1.097,0-2.112-0.175-3.043-0.524c-0.932-0.349-1.73-0.831-2.396-1.447c-0.666-0.614-1.181-1.354-1.546-2.22
			c-0.366-0.865-0.549-1.812-0.549-2.844c0-4.523,2.876-7.234,8.632-8.133l6.336-0.998v-0.399c0-1.297-0.466-2.295-1.397-2.993
			c-0.931-0.699-2.228-1.048-3.892-1.048c-1.596,0-3.085,0.316-4.465,0.947c-1.38,0.633-2.653,1.48-3.817,2.545v-5.638
			c1.065-0.865,2.328-1.563,3.793-2.097c1.463-0.531,3.093-0.797,4.889-0.797c3.426,0,6.037,0.822,7.834,2.469
			c1.795,1.646,2.694,3.935,2.694,6.861v15.717H294.1z M284.47,213.132c0.033,0.865,0.358,1.547,0.973,2.046
			c0.615,0.499,1.405,0.748,2.37,0.748c1.797,0,3.26-0.531,4.391-1.597c1.13-1.064,1.696-2.427,1.696-4.091v-1.348l-5.438,0.898
			C285.801,210.256,284.47,211.369,284.47,213.132z"/>
		<path fill="#FFFFFF" d="M319.447,201.106c-0.267-0.132-0.766-0.199-1.497-0.199c-2.129,0-3.801,0.757-5.015,2.271
			c-1.214,1.515-1.821,3.535-1.821,6.062v10.777h-5.738v-24.449h5.688v4.191c0.598-1.43,1.563-2.569,2.894-3.418
			c1.33-0.848,2.794-1.271,4.391-1.271c0.631,0,0.998,0.05,1.097,0.149V201.106z"/>
		<path fill="#FFFFFF" d="M329.027,220.018h-5.788v-24.449h5.788v3.243c0.764-1.163,1.771-2.095,3.019-2.793
			c1.247-0.699,2.735-1.048,4.466-1.048c2.993,0,5.321,0.923,6.984,2.769s2.495,4.365,2.495,7.559v14.72h-5.788v-13.622
			c0-1.896-0.467-3.384-1.396-4.465c-0.932-1.081-2.279-1.621-4.041-1.621c-1.73,0-3.119,0.615-4.168,1.846
			c-1.047,1.231-1.57,2.894-1.57,4.988V220.018z"/>
		<path fill="#FFFFFF" d="M358.314,188.435c0,0.965-0.342,1.795-1.023,2.494c-0.682,0.698-1.538,1.048-2.568,1.048
			c-0.965,0-1.797-0.35-2.496-1.048c-0.697-0.699-1.047-1.529-1.047-2.494c0-0.999,0.35-1.847,1.047-2.545
			c0.699-0.699,1.531-1.048,2.496-1.048c1.03,0,1.887,0.357,2.568,1.072S358.314,187.47,358.314,188.435z M351.878,220.018v-24.449
			h5.788v24.449H351.878z"/>
		<path fill="#FFFFFF" d="M369.641,220.018h-5.788v-24.449h5.788v3.243c0.765-1.163,1.771-2.095,3.02-2.793
			c1.247-0.699,2.735-1.048,4.465-1.048c2.994,0,5.321,0.923,6.985,2.769c1.662,1.846,2.494,4.365,2.494,7.559v14.72h-5.787v-13.622
			c0-1.896-0.467-3.384-1.397-4.465c-0.932-1.081-2.278-1.621-4.041-1.621c-1.73,0-3.118,0.615-4.167,1.846
			c-1.048,1.231-1.571,2.894-1.571,4.988V220.018z"/>
		<path fill="#FFFFFF" d="M391.693,204.102c0-1.364,0.257-2.603,0.773-3.718c0.515-1.114,1.223-2.071,2.121-2.869
			c0.897-0.798,1.946-1.422,3.143-1.87c1.198-0.45,2.479-0.674,3.843-0.674c0.631,0,1.247,0.059,1.846,0.174
			c0.599,0.117,1.18,0.259,1.746,0.424h8.433v4.291h-3.193c0.332,0.632,0.59,1.306,0.773,2.021c0.183,0.716,0.274,1.456,0.274,2.222
			c0,1.363-0.267,2.594-0.799,3.691s-1.247,2.046-2.146,2.844c-0.897,0.799-1.946,1.414-3.143,1.846
			c-1.198,0.434-2.462,0.649-3.792,0.649c-1.53,0-2.912-0.25-4.142-0.749c-0.633,0.199-1.073,0.475-1.322,0.824
			c-0.25,0.349-0.374,0.706-0.374,1.072c0,0.665,0.249,1.122,0.748,1.372c0.499,0.249,1.147,0.374,1.946,0.374h6.936
			c2.66,0,4.781,0.558,6.36,1.672c1.58,1.115,2.371,2.752,2.371,4.914c0,1.464-0.358,2.728-1.073,3.792
			c-0.716,1.064-1.663,1.946-2.844,2.645c-1.181,0.699-2.553,1.214-4.116,1.547c-1.564,0.333-3.194,0.499-4.89,0.499
			c-1.697,0-3.243-0.125-4.64-0.374c-1.397-0.249-2.579-0.648-3.543-1.198c-0.965-0.548-1.714-1.247-2.246-2.095
			s-0.798-1.855-0.798-3.019c0-1.098,0.299-2.079,0.898-2.944c0.599-0.865,1.329-1.562,2.194-2.095
			c-0.697-0.532-1.214-1.155-1.546-1.871c-0.333-0.715-0.5-1.455-0.5-2.221c0-1.33,0.325-2.387,0.974-3.169
			c0.649-0.78,1.372-1.422,2.171-1.921c-0.766-0.764-1.364-1.662-1.796-2.693C391.909,206.464,391.693,205.332,391.693,204.102z
			 M408.957,223.161c0-0.866-0.391-1.473-1.172-1.822c-0.783-0.349-1.921-0.523-3.418-0.523h-7.335
			c-1.364,0.699-2.046,1.63-2.046,2.794c0,1.165,0.574,1.996,1.722,2.494c1.147,0.5,2.669,0.75,4.565,0.75
			c2.361,0,4.232-0.317,5.613-0.949C408.267,225.272,408.957,224.357,408.957,223.161z M401.573,199.561
			c-0.633,0-1.231,0.116-1.797,0.35c-0.565,0.232-1.057,0.548-1.472,0.947c-0.417,0.399-0.748,0.873-0.997,1.422
			c-0.251,0.55-0.376,1.156-0.376,1.822c0,0.665,0.125,1.28,0.376,1.846c0.249,0.565,0.58,1.048,0.997,1.447
			c0.415,0.398,0.906,0.706,1.472,0.922c0.565,0.217,1.164,0.325,1.797,0.325c0.631,0,1.229-0.108,1.796-0.325
			c0.565-0.216,1.055-0.523,1.472-0.922c0.415-0.399,0.748-0.882,0.998-1.447c0.249-0.565,0.374-1.181,0.374-1.846
			c0-0.666-0.125-1.272-0.374-1.822c-0.25-0.549-0.583-1.022-0.998-1.422c-0.417-0.399-0.906-0.715-1.472-0.947
			C402.803,199.677,402.204,199.561,401.573,199.561z"/>
		<path fill="#FFFFFF" d="M444.531,185.091l14.22,34.927h-6.286l-3.543-8.832h-14.07l-3.492,8.832h-6.137l14.22-34.927H444.531z
			 M436.798,205.947h10.229l-5.139-12.973L436.798,205.947z"/>
		<path fill="#FFFFFF" d="M460.696,212.034c1.23,1.031,2.619,1.871,4.167,2.52c1.547,0.649,3.101,0.973,4.665,0.973
			c1.13,0.033,2.095-0.166,2.894-0.599c0.799-0.432,1.198-1.13,1.198-2.096c0-0.73-0.317-1.288-0.949-1.671s-1.446-0.69-2.445-0.923
			c-0.997-0.232-2.062-0.475-3.192-0.724c-1.132-0.249-2.195-0.615-3.193-1.099c-0.998-0.481-1.805-1.172-2.42-2.069
			c-0.616-0.898-0.924-2.063-0.924-3.494c0-1.196,0.241-2.277,0.725-3.242c0.481-0.965,1.155-1.797,2.021-2.495
			c0.864-0.698,1.887-1.23,3.068-1.596c1.18-0.366,2.486-0.549,3.916-0.549c1.431,0,2.827,0.198,4.191,0.598
			s2.611,0.916,3.743,1.547v6.037c-1.165-0.964-2.438-1.729-3.817-2.295c-1.381-0.565-2.819-0.848-4.316-0.848
			c-1.165,0-2.104,0.208-2.819,0.623c-0.715,0.416-1.072,0.99-1.072,1.722c0,0.666,0.324,1.19,0.973,1.571
			c0.649,0.383,1.464,0.691,2.445,0.924c0.98,0.232,2.046,0.49,3.193,0.773s2.212,0.673,3.193,1.172
			c0.98,0.499,1.796,1.206,2.445,2.12c0.648,0.916,0.973,2.104,0.973,3.567c0,1.331-0.258,2.504-0.774,3.518
			c-0.515,1.016-1.214,1.863-2.095,2.545c-0.883,0.683-1.896,1.198-3.044,1.547c-1.147,0.35-2.369,0.524-3.667,0.524
			c-1.797,0-3.46-0.2-4.99-0.599c-1.53-0.399-2.894-0.981-4.091-1.747V212.034z"/>
		<path fill="#FFFFFF" d="M482.499,212.034c1.231,1.031,2.62,1.871,4.167,2.52c1.547,0.649,3.101,0.973,4.665,0.973
			c1.131,0.033,2.096-0.166,2.894-0.599c0.799-0.432,1.198-1.13,1.198-2.096c0-0.73-0.316-1.288-0.948-1.671
			c-0.633-0.383-1.447-0.69-2.445-0.923c-0.997-0.232-2.062-0.475-3.193-0.724s-2.195-0.615-3.193-1.099
			c-0.998-0.481-1.805-1.172-2.419-2.069c-0.616-0.898-0.924-2.063-0.924-3.494c0-1.196,0.241-2.277,0.724-3.242
			s1.155-1.797,2.021-2.495s1.888-1.23,3.069-1.596c1.18-0.366,2.486-0.549,3.916-0.549c1.431,0,2.827,0.198,4.191,0.598
			s2.611,0.916,3.742,1.547v6.037c-1.164-0.964-2.437-1.729-3.817-2.295c-1.38-0.565-2.818-0.848-4.316-0.848
			c-1.164,0-2.103,0.208-2.818,0.623c-0.715,0.416-1.073,0.99-1.073,1.722c0,0.666,0.325,1.19,0.973,1.571
			c0.649,0.383,1.465,0.691,2.445,0.924c0.981,0.232,2.046,0.49,3.194,0.773c1.147,0.283,2.211,0.673,3.193,1.172
			c0.979,0.499,1.795,1.206,2.444,2.12c0.648,0.916,0.974,2.104,0.974,3.567c0,1.331-0.259,2.504-0.774,3.518
			c-0.516,1.016-1.214,1.863-2.096,2.545c-0.882,0.683-1.896,1.198-3.044,1.547c-1.147,0.35-2.369,0.524-3.667,0.524
			c-1.796,0-3.46-0.2-4.989-0.599c-1.53-0.399-2.894-0.981-4.092-1.747V212.034z"/>
		<path fill="#FFFFFF" d="M511.787,188.435c0,0.965-0.343,1.795-1.023,2.494c-0.681,0.698-1.538,1.048-2.568,1.048
			c-0.965,0-1.797-0.35-2.495-1.048c-0.698-0.699-1.048-1.529-1.048-2.494c0-0.999,0.35-1.847,1.048-2.545
			c0.698-0.699,1.53-1.048,2.495-1.048c1.03,0,1.888,0.357,2.568,1.072S511.787,187.47,511.787,188.435z M505.351,220.018v-24.449
			h5.788v24.449H505.351z"/>
		<path fill="#FFFFFF" d="M516.026,212.034c1.231,1.031,2.619,1.871,4.168,2.52c1.547,0.649,3.1,0.973,4.664,0.973
			c1.131,0.033,2.095-0.166,2.894-0.599c0.799-0.432,1.198-1.13,1.198-2.096c0-0.73-0.317-1.288-0.948-1.671
			c-0.633-0.383-1.447-0.69-2.446-0.923c-0.996-0.232-2.062-0.475-3.191-0.724c-1.132-0.249-2.196-0.615-3.194-1.099
			c-0.998-0.481-1.805-1.172-2.42-2.069c-0.615-0.898-0.924-2.063-0.924-3.494c0-1.196,0.242-2.277,0.725-3.242
			c0.481-0.965,1.155-1.797,2.021-2.495s1.887-1.23,3.068-1.596c1.18-0.366,2.486-0.549,3.916-0.549
			c1.433,0,2.827,0.198,4.192,0.598c1.363,0.399,2.611,0.916,3.743,1.547v6.037c-1.166-0.964-2.438-1.729-3.817-2.295
			c-1.381-0.565-2.819-0.848-4.317-0.848c-1.163,0-2.104,0.208-2.819,0.623c-0.714,0.416-1.072,0.99-1.072,1.722
			c0,0.666,0.324,1.19,0.974,1.571c0.649,0.383,1.464,0.691,2.444,0.924c0.981,0.232,2.047,0.49,3.194,0.773
			c1.146,0.283,2.212,0.673,3.193,1.172c0.98,0.499,1.795,1.206,2.444,2.12c0.649,0.916,0.974,2.104,0.974,3.567
			c0,1.331-0.258,2.504-0.774,3.518c-0.516,1.016-1.214,1.863-2.095,2.545c-0.884,0.683-1.896,1.198-3.045,1.547
			c-1.147,0.35-2.369,0.524-3.666,0.524c-1.797,0-3.46-0.2-4.991-0.599c-1.53-0.399-2.894-0.981-4.091-1.747V212.034z"/>
		<path fill="#FFFFFF" d="M546.688,214.404c0.615,0.616,1.571,0.923,2.868,0.923c0.466,0,0.939-0.058,1.423-0.175
			c0.482-0.116,0.905-0.308,1.272-0.573v5.139c-0.468,0.268-1.066,0.481-1.797,0.648c-0.731,0.166-1.597,0.25-2.595,0.25
			c-2.462,0-4.382-0.715-5.763-2.146c-1.38-1.43-2.071-3.426-2.071-5.988v-12.024h-4.34v-0.798l9.93-10.428h0.149v6.336h6.486v4.89
			h-6.486v10.978C545.766,212.799,546.071,213.789,546.688,214.404z"/>
		<path fill="#FFFFFF" d="M570.612,220.018l-0.051-3.145c-0.864,1.266-1.97,2.204-3.316,2.819c-1.348,0.615-2.787,0.924-4.317,0.924
			c-1.098,0-2.111-0.175-3.043-0.524c-0.932-0.349-1.73-0.831-2.396-1.447c-0.666-0.614-1.18-1.354-1.547-2.22
			c-0.365-0.865-0.549-1.812-0.549-2.844c0-4.523,2.878-7.234,8.633-8.133l6.336-0.998v-0.399c0-1.297-0.466-2.295-1.397-2.993
			c-0.932-0.699-2.229-1.048-3.892-1.048c-1.596,0-3.085,0.316-4.465,0.947c-1.381,0.633-2.653,1.48-3.817,2.545v-5.638
			c1.065-0.865,2.327-1.563,3.793-2.097c1.462-0.531,3.094-0.797,4.889-0.797c3.426,0,6.037,0.822,7.834,2.469
			c1.796,1.646,2.693,3.935,2.693,6.861v15.717H570.612z M560.981,213.132c0.034,0.865,0.359,1.547,0.974,2.046
			c0.615,0.499,1.406,0.748,2.37,0.748c1.796,0,3.261-0.531,4.392-1.597c1.129-1.064,1.695-2.427,1.695-4.091v-1.348l-5.438,0.898
			C562.312,210.256,560.981,211.369,560.981,213.132z"/>
		<path fill="#FFFFFF" d="M587.676,220.018h-5.787v-24.449h5.787v3.243c0.764-1.163,1.771-2.095,3.019-2.793
			c1.248-0.699,2.736-1.048,4.467-1.048c2.992,0,5.321,0.923,6.984,2.769c1.662,1.846,2.495,4.365,2.495,7.559v14.72h-5.787v-13.622
			c0-1.896-0.469-3.384-1.398-4.465c-0.931-1.081-2.278-1.621-4.041-1.621c-1.729,0-3.119,0.615-4.168,1.846
			c-1.046,1.231-1.57,2.894-1.57,4.988V220.018z"/>
		<path fill="#FFFFFF" d="M618.086,214.404c0.615,0.616,1.573,0.923,2.87,0.923c0.466,0,0.939-0.058,1.421-0.175
			c0.482-0.116,0.905-0.308,1.272-0.573v5.139c-0.466,0.268-1.064,0.481-1.797,0.648c-0.731,0.166-1.597,0.25-2.593,0.25
			c-2.462,0-4.384-0.715-5.763-2.146c-1.382-1.43-2.071-3.426-2.071-5.988v-12.024h-4.342v-0.798l9.93-10.428h0.148v6.336h6.487
			v4.89h-6.487v10.978C617.162,212.799,617.471,213.789,618.086,214.404z"/>
	</g>
</g>
</svg>
