<?xml version="1.0" encoding="UTF-8"?>
<svg width="550px" height="85px" viewBox="0 0 550 85" version="1.1" xmlns="http://www.w3.org/2000/svg" xmlns:xlink="http://www.w3.org/1999/xlink">
    <!-- Generator: Sketch 51.3 (57544) - http://www.bohemiancoding.com/sketch -->
    <title>Artboard</title>
    <desc>Created with Sketch.</desc>
    <defs>
        <polyline id="path-1" points="43.7160484 27.1766935 41.5087903 29.0151613 39.3015323 27.1766935 7.75282258 0.887016129 0.143951613 3.84693548 41.5087903 52.106371 82.8722581 3.84693548 75.2620161 0.887016129 73.7991935 2.10854839 43.7160484 27.1766935"></polyline>
        <linearGradient x1="50.0008286%" y1="69.2344754%" x2="50.0008286%" y2="3.77971092%" id="linearGradient-3">
            <stop stop-color="#5B7BB0" offset="0%"></stop>
            <stop stop-color="#3865A1" offset="100%"></stop>
        </linearGradient>
        <polyline id="path-4" points="70.1003226 0.220725806 66.6866129 1.92620968 43.0483871 13.7466935 41.5087903 14.5171774 16.3309677 1.92620968 12.9172581 0.220725806 0.143951613 3.76741935 41.5087903 38.2376613 71.5905645 13.1695161 74.6190323 10.6483065 82.8722581 3.76741935 70.1003226 0.220725806"></polyline>
        <linearGradient x1="50.0008286%" y1="57.2556798%" x2="50.0008286%" y2="-7.80274071%" id="linearGradient-6">
            <stop stop-color="#5CA9D1" offset="0%"></stop>
            <stop stop-color="#2F95BA" offset="100%"></stop>
        </linearGradient>
        <polyline id="path-7" points="74.6012097 6.42572581 62.1898387 4.35693548 41.5087903 0.908951613 8.41637097 6.42572581 0.143951613 7.80354839 13.2709677 14.366371 17.8691935 16.6668548 31.1675806 23.3133065 41.5087903 28.4845968 51.85 23.3133065 65.1470161 16.6668548 69.7452419 14.366371 82.8722581 7.80354839 74.6012097 6.42572581"></polyline>
        <linearGradient x1="50.0008286%" y1="70.6970269%" x2="50.0008286%" y2="-18.2822909%" id="linearGradient-9">
            <stop stop-color="#8BD0E6" offset="0%"></stop>
            <stop stop-color="#5FBACC" offset="100%"></stop>
        </linearGradient>
    </defs>
    <g id="Artboard" stroke="none" stroke-width="1" fill="none" fill-rule="evenodd">
        <g id="Group">
            <path d="M145.177258,40.2091129 C145.177258,39.0122581 144.95379,37.9045161 144.512339,36.8845161 C144.066774,35.8617742 143.469032,34.9637903 142.715,34.1891935 C141.960968,33.4118548 141.072581,32.8017742 140.052581,32.3589516 C139.032581,31.916129 137.924839,31.6926613 136.725242,31.6926613 C135.527016,31.6926613 134.419274,31.916129 133.397903,32.3589516 C132.377903,32.8017742 131.490887,33.4118548 130.736855,34.1891935 C129.982823,34.9637903 129.38371,35.8617742 128.940887,36.8845161 C128.496694,37.9045161 128.274597,39.0122581 128.274597,40.2091129 C128.274597,41.4087097 128.496694,42.5178226 128.940887,43.5378226 C129.38371,44.5578226 129.982823,45.4558065 130.736855,46.2317742 C131.490887,47.0091129 132.377903,47.6191935 133.397903,48.0620161 C134.419274,48.5062097 135.527016,48.7283065 136.725242,48.7283065 C137.924839,48.7283065 139.032581,48.5062097 140.052581,48.0620161 C141.072581,47.6191935 141.960968,47.0091129 142.715,46.2317742 C143.469032,45.4558065 144.066774,44.5578226 144.512339,43.5378226 C144.95379,42.5178226 145.177258,41.4087097 145.177258,40.2091129 Z M118.958871,56.6483871 L118.958871,10.0670161 L128.607742,10.0670161 L128.607742,28.1665323 C129.760726,26.4816129 131.279758,25.1942742 133.16621,24.3072581 C135.05129,23.418871 137.080323,22.9760484 139.254677,22.9760484 C141.471532,22.9760484 143.523871,23.418871 145.408952,24.3072581 C147.294032,25.1942742 148.936452,26.4020968 150.334839,27.9320968 C151.731855,29.4634677 152.83,31.2841129 153.627903,33.3885484 C154.427177,35.4984677 154.826129,37.7701613 154.826129,40.2091129 C154.826129,42.6508065 154.427177,44.9129032 153.627903,46.9967742 C152.83,49.0833871 151.731855,50.9026613 150.334839,52.4532258 C148.936452,54.0079032 147.294032,55.2280645 145.408952,56.1137097 C143.523871,56.9993548 141.471532,57.4449194 139.254677,57.4449194 C137.080323,57.4449194 135.05129,57.033629 133.16621,56.2137903 C131.279758,55.3939516 129.760726,54.1189516 128.607742,52.3874194 L128.607742,56.6483871 L118.958871,56.6483871 Z" id="Fill-3" fill="#2F3130"></path>
            <path d="M167.333468,40.2091129 C167.333468,41.4087097 167.555565,42.5178226 167.999758,43.5378226 C168.442581,44.5578226 169.030726,45.4462097 169.762823,46.198871 C170.494919,46.9542742 171.36,47.5520161 172.358065,47.9948387 C173.356129,48.4404032 174.430968,48.661129 175.585323,48.661129 C176.693065,48.661129 177.758306,48.4404032 178.779677,47.9948387 C179.798306,47.5520161 180.675726,46.9542742 181.407823,46.198871 C182.138548,45.4462097 182.726694,44.5578226 183.172258,43.5378226 C183.61371,42.5178226 183.835806,41.4087097 183.835806,40.2091129 C183.835806,39.0122581 183.61371,37.9045161 183.172258,36.8845161 C182.726694,35.8617742 182.138548,34.976129 181.407823,34.2220968 C180.675726,33.4666935 179.798306,32.8689516 178.779677,32.426129 C177.758306,31.9819355 176.693065,31.7598387 175.585323,31.7598387 C174.430968,31.7598387 173.356129,31.9819355 172.358065,32.426129 C171.36,32.8689516 170.494919,33.4666935 169.762823,34.2220968 C169.030726,34.976129 168.442581,35.8617742 167.999758,36.8845161 C167.555565,37.9045161 167.333468,39.0122581 167.333468,40.2091129 Z M157.751774,40.2091129 C157.751774,37.7701613 158.205565,35.4984677 159.115887,33.3885484 C160.024839,31.2841129 161.279274,29.4525 162.875081,27.9005645 C164.472258,26.3472581 166.357339,25.1270968 168.531694,24.2400806 C170.704677,23.3530645 173.055887,22.908871 175.585323,22.908871 C178.113387,22.908871 180.464597,23.3530645 182.638952,24.2400806 C184.811935,25.1270968 186.698387,26.3472581 188.295565,27.9005645 C189.891371,29.4525 191.144435,31.2841129 192.054758,33.3885484 C192.96371,35.4984677 193.418871,37.7701613 193.418871,40.2091129 C193.418871,42.6508065 192.96371,44.9252419 192.054758,47.0310484 C191.144435,49.1382258 189.891371,50.9684677 188.295565,52.5204032 C186.698387,54.0737097 184.811935,55.2925 182.638952,56.1822581 C180.464597,57.0665323 178.113387,57.5120968 175.585323,57.5120968 C173.055887,57.5120968 170.704677,57.0665323 168.531694,56.1822581 C166.357339,55.2925 164.472258,54.0737097 162.875081,52.5204032 C161.279274,50.9684677 160.024839,49.1382258 159.115887,47.0310484 C158.205565,44.9252419 157.751774,42.6508065 157.751774,40.2091129 Z" id="Fill-4" fill="#2F3130"></path>
            <path d="M205.660242,40.2091129 C205.660242,41.4087097 205.882339,42.5178226 206.326532,43.5378226 C206.769355,44.5578226 207.3575,45.4462097 208.089597,46.198871 C208.821694,46.9542742 209.686774,47.5520161 210.684839,47.9948387 C211.682903,48.4404032 212.757742,48.661129 213.912097,48.661129 C215.019839,48.661129 216.085081,48.4404032 217.106452,47.9948387 C218.126452,47.5520161 219.0025,46.9542742 219.734597,46.198871 C220.466694,45.4462097 221.053468,44.5578226 221.497661,43.5378226 C221.940484,42.5178226 222.163952,41.4087097 222.163952,40.2091129 C222.163952,39.0122581 221.940484,37.9045161 221.497661,36.8845161 C221.053468,35.8617742 220.466694,34.976129 219.734597,34.2220968 C219.0025,33.4666935 218.126452,32.8689516 217.106452,32.426129 C216.085081,31.9819355 215.019839,31.7598387 213.912097,31.7598387 C212.757742,31.7598387 211.682903,31.9819355 210.684839,32.426129 C209.686774,32.8689516 208.821694,33.4666935 208.089597,34.2220968 C207.3575,34.976129 206.769355,35.8617742 206.326532,36.8845161 C205.882339,37.9045161 205.660242,39.0122581 205.660242,40.2091129 Z M196.078548,40.2091129 C196.078548,37.7701613 196.532339,35.4984677 197.444032,33.3885484 C198.351613,31.2841129 199.606048,29.4525 201.201855,27.9005645 C202.799032,26.3472581 204.684113,25.1270968 206.858468,24.2400806 C209.031452,23.3530645 211.384032,22.908871 213.912097,22.908871 C216.440161,22.908871 218.791371,23.3530645 220.965726,24.2400806 C223.13871,25.1270968 225.025161,26.3472581 226.620968,27.9005645 C228.219516,29.4525 229.472581,31.2841129 230.381532,33.3885484 C231.290484,35.4984677 231.745645,37.7701613 231.745645,40.2091129 C231.745645,42.6508065 231.290484,44.9252419 230.381532,47.0310484 C229.472581,49.1382258 228.219516,50.9684677 226.620968,52.5204032 C225.025161,54.0737097 223.13871,55.2925 220.965726,56.1822581 C218.791371,57.0665323 216.440161,57.5120968 213.912097,57.5120968 C211.384032,57.5120968 209.031452,57.0665323 206.858468,56.1822581 C204.684113,55.2925 202.799032,54.0737097 201.201855,52.5204032 C199.606048,50.9684677 198.351613,49.1382258 197.444032,47.0310484 C196.532339,44.9252419 196.078548,42.6508065 196.078548,40.2091129 Z" id="Fill-5" fill="#2F3130"></path>
            <path d="M232.74371,31.7598387 L232.74371,30.4944355 L248.115,14.4568548 L248.380968,14.4568548 L248.380968,23.7739516 L256.698629,23.7739516 L256.698629,31.7598387 L248.380968,31.7598387 L248.380968,43.8024194 C248.380968,45.5764516 248.756613,46.8432258 249.512016,47.5972581 C250.266048,48.3526613 251.419032,48.7283065 252.972339,48.7283065 C253.637258,48.7283065 254.303548,48.6172581 254.968468,48.3937903 C255.633387,48.1744355 256.210565,47.8865323 256.698629,47.5300806 L256.698629,56.0465323 C255.943226,56.4468548 254.979435,56.7772581 253.804516,57.0473387 C252.629597,57.3133065 251.264113,57.4449194 249.712177,57.4449194 C246.206613,57.4449194 243.500323,56.481129 241.593306,54.5494355 C239.68629,52.6191129 238.732097,49.8141129 238.732097,46.1316935 L238.732097,31.7598387 L232.74371,31.7598387" id="Fill-6" fill="#2F3130"></path>
            <path d="M260.359113,40.2091129 C260.359113,37.7276613 260.790968,35.4312903 261.656048,33.3227419 C262.521129,31.2155645 263.728952,29.3866935 265.282258,27.8320161 C266.835565,26.2800806 268.685,25.0722581 270.83879,24.2071774 C272.989839,23.3420968 275.352016,22.908871 277.926694,22.908871 C279.344274,22.908871 280.775565,23.076129 282.217823,23.4065323 C283.65871,23.7424194 284.978952,24.2633871 286.177177,24.9721774 L286.177177,34.086371 C283.915081,32.4905645 281.540565,31.6926613 279.057742,31.6926613 C277.769032,31.6926613 276.583145,31.9037903 275.497339,32.3246774 C274.410161,32.7469355 273.466935,33.3350806 272.669032,34.086371 C271.869758,34.8431452 271.250081,35.741129 270.804516,36.7816935 C270.361694,37.826371 270.138226,38.9683871 270.138226,40.2091129 C270.138226,41.4525806 270.361694,42.5959677 270.804516,43.6379032 C271.250081,44.6798387 271.869758,45.5764516 272.669032,46.3318548 C273.466935,47.0872581 274.410161,47.6754032 275.497339,48.0935484 C276.583145,48.5185484 277.769032,48.7283065 279.057742,48.7283065 C280.342339,48.7283065 281.606371,48.493871 282.849839,48.0277419 C284.091935,47.5643548 285.222984,46.9542742 286.244355,46.198871 L286.244355,55.3829839 C284.913145,56.1356452 283.527097,56.6785484 282.084839,57.0116935 C280.642581,57.3448387 279.21129,57.5120968 277.792339,57.5120968 C275.264274,57.5120968 272.935,57.0898387 270.804516,56.2480645 C268.675403,55.4049194 266.835565,54.2272581 265.282258,52.7205645 C263.728952,51.2125 262.521129,49.3945968 261.656048,47.2627419 C260.790968,45.135 260.359113,42.7837903 260.359113,40.2091129" id="Fill-7" fill="#2F3130"></path>
            <path d="M299.48379,47.0639516 C299.527661,47.9948387 299.89371,48.7406452 300.581935,49.2931452 C301.270161,49.8483871 302.169516,50.1266935 303.277258,50.1266935 C305.317258,50.1266935 306.94871,49.4837097 308.168871,48.196371 C309.389032,46.9090323 309.999113,45.3351613 309.999113,43.4706452 L309.999113,42.3395968 L304.209516,43.2732258 C301.059032,43.7599194 299.48379,45.0253226 299.48379,47.0639516 Z M310.396694,56.6483871 L310.266452,52.5204032 C309.288952,54.2066935 307.935806,55.4597581 306.207016,56.2809677 C304.475484,57.1021774 302.612339,57.5120968 300.614839,57.5120968 C299.064274,57.5120968 297.653548,57.2790323 296.390887,56.8129032 C295.126855,56.3467742 294.049274,55.6928226 293.162258,54.8496774 C292.275242,54.0079032 291.577419,52.996129 291.067419,51.8225806 C290.557419,50.6462903 290.302419,49.3274194 290.302419,47.8632258 C290.302419,41.7404839 294.382419,38.0827419 302.546532,36.8845161 L309.999113,35.8192742 L309.999113,35.4189516 C309.999113,34.043871 309.454839,32.981371 308.369032,32.2245968 C307.280484,31.4719355 305.606532,31.0935484 303.344435,31.0935484 C301.215323,31.0935484 299.217823,31.4815323 297.356048,32.2575 C295.492903,33.0348387 293.806613,34.1124194 292.297177,35.486129 L292.297177,26.2362097 C293.716129,25.2600806 295.447661,24.4621774 297.487661,23.841129 C299.527661,23.2187097 301.813065,22.908871 304.3425,22.908871 C309.134032,22.908871 312.837016,24.0193548 315.455565,26.2362097 C318.072742,28.4558065 319.382016,31.7145968 319.382016,36.0180645 L319.382016,56.6483871 L310.396694,56.6483871 Z" id="Fill-8" fill="#2F3130"></path>
            <path d="M336.017339,56.6483871 L326.30129,56.6483871 L326.30129,23.7739516 L336.017339,23.7739516 L336.017339,27.9005645 C336.904355,26.391129 338.123145,25.1819355 339.677823,24.2729839 C341.228387,23.3654032 343.092903,22.908871 345.265887,22.908871 C347.527984,22.908871 349.480242,23.4065323 351.12129,24.4059677 C352.76371,25.4040323 354.026371,26.8133871 354.916129,28.6326613 C355.934758,26.901129 357.35371,25.5164516 359.172984,24.4731452 C360.992258,23.4325806 363.100806,22.908871 365.495887,22.908871 C369.266048,22.908871 372.1725,24.0851613 374.2125,26.436371 C376.2525,28.7889516 377.273871,31.9819355 377.273871,36.0180645 L377.273871,56.6483871 L367.557823,56.6483871 L367.557823,38.2787903 C367.557823,36.2401613 367.104032,34.6429839 366.19371,33.49 C365.283387,32.3356452 363.986452,31.7598387 362.301532,31.7598387 C360.615242,31.7598387 359.263468,32.3918548 358.242097,33.6558871 C357.222097,34.9199194 356.68879,36.6624194 356.64629,38.8792742 L356.64629,56.6483871 L346.931613,56.6483871 L346.931613,38.4131452 C346.931613,36.2840323 346.484677,34.6429839 345.599032,33.49 C344.712016,32.3356452 343.426048,31.7598387 341.741129,31.7598387 C340.009597,31.7598387 338.622177,32.4151613 337.578871,33.7230645 C336.538306,35.0309677 336.017339,36.8159677 336.017339,39.0780645 L336.017339,56.6483871" id="Fill-9" fill="#2F3130"></path>
            <path d="M410.412903,40.2091129 C410.412903,39.0122581 410.189435,37.9045161 409.746613,36.8845161 C409.302419,35.8617742 408.704677,34.9637903 407.949274,34.1891935 C407.195242,33.4118548 406.308226,32.8017742 405.286855,32.3589516 C404.266855,31.916129 403.159113,31.6926613 401.960887,31.6926613 C400.762661,31.6926613 399.654919,31.916129 398.634919,32.3589516 C397.612177,32.8017742 396.726532,33.4118548 395.9725,34.1891935 C395.215726,34.9637903 394.619355,35.8617742 394.176532,36.8845161 C393.732339,37.9045161 393.508871,39.0122581 393.508871,40.2091129 C393.508871,41.4087097 393.732339,42.5178226 394.176532,43.5378226 C394.619355,44.5578226 395.215726,45.4558065 395.9725,46.2317742 C396.726532,47.0091129 397.612177,47.6191935 398.634919,48.0620161 C399.654919,48.5062097 400.762661,48.7283065 401.960887,48.7283065 C403.159113,48.7283065 404.266855,48.5062097 405.286855,48.0620161 C406.308226,47.6191935 407.195242,47.0091129 407.949274,46.2317742 C408.704677,45.4558065 409.302419,44.5578226 409.746613,43.5378226 C410.189435,42.5178226 410.412903,41.4087097 410.412903,40.2091129 Z M384.193145,70.4883065 L384.193145,23.7739516 L393.842016,23.7739516 L393.842016,28.1665323 C394.995,26.4816129 396.516774,25.1942742 398.401855,24.3072581 C400.286935,23.418871 402.315968,22.9760484 404.488952,22.9760484 C406.707177,22.9760484 408.758145,23.418871 410.645968,24.3072581 C412.531048,25.1942742 414.172097,26.4020968 415.569113,27.9320968 C416.966129,29.4634677 418.062903,31.2841129 418.862177,33.3885484 C419.661452,35.4984677 420.060403,37.7701613 420.060403,40.2091129 C420.060403,42.6508065 419.661452,44.9129032 418.862177,46.9967742 C418.062903,49.0833871 416.966129,50.9026613 415.569113,52.4532258 C414.172097,54.0079032 412.531048,55.2280645 410.645968,56.1137097 C408.758145,56.9993548 406.707177,57.4449194 404.488952,57.4449194 C402.315968,57.4449194 400.286935,57.033629 398.401855,56.2137903 C396.516774,55.3939516 394.995,54.1189516 393.842016,52.3874194 L393.842016,70.4883065 L384.193145,70.4883065 Z" id="Fill-10" fill="#2F3130"></path>
            <path d="M426.780887,47.728871 C428.24371,49.0587097 429.884758,50.148629 431.705403,50.9917742 C433.523306,51.8349194 435.430323,52.2530645 437.427823,52.2530645 C438.225726,52.2530645 439.001694,52.1776613 439.757097,52.0227419 C440.509758,51.8664516 441.176048,51.6114516 441.753226,51.2577419 C442.329032,50.9026613 442.79379,50.4475 443.150242,49.8922581 C443.503952,49.3383871 443.682177,48.6405645 443.682177,47.7974194 C443.682177,46.9542742 443.492984,46.2441129 443.117339,45.6669355 C442.738952,45.091129 442.227581,44.6016935 441.587339,44.2027419 C440.942984,43.8024194 440.188952,43.4706452 439.323871,43.2046774 C438.457419,42.9387097 437.515565,42.6960484 436.496935,42.4725806 C435.342581,42.2066129 434.177258,41.8858065 433.002339,41.5087903 C431.826048,41.1304032 430.773145,40.5998387 429.842258,39.9116129 C428.91,39.2233871 428.155968,38.3473387 427.580161,37.2820968 C427.001613,36.2168548 426.71371,34.9103226 426.71371,33.3556452 C426.71371,31.7145968 427.034516,30.2846774 427.680242,29.0631452 C428.321855,27.8443548 429.163629,26.8257258 430.206935,26.0045161 C431.250242,25.1819355 432.447097,24.5718548 433.801613,24.1742742 C435.152016,23.7739516 436.562742,23.5737903 438.025565,23.5737903 C439.757097,23.5737903 441.463952,23.8315323 443.150242,24.3401613 C444.836532,24.8515323 446.388468,25.5932258 447.80879,26.5693548 L447.80879,32.6235484 C446.388468,31.4719355 444.857097,30.5177419 443.216048,29.7623387 C441.575,29.0096774 439.890081,28.6326613 438.159919,28.6326613 C437.493629,28.6326613 436.805403,28.6984677 436.096613,28.8314516 C435.386452,28.9644355 434.754435,29.198871 434.200565,29.5292742 C433.643952,29.8624194 433.191532,30.2846774 432.836452,30.7960484 C432.48,31.3046774 432.303145,31.9366935 432.303145,32.6920968 C432.303145,34.1535484 432.924194,35.2516935 434.167661,35.9851613 C435.408387,36.7158871 436.961694,37.3273387 438.824839,37.8140323 C440.332903,38.1704839 441.729919,38.591371 443.015887,39.0780645 C444.303226,39.568871 445.41371,40.1762097 446.343226,40.9083065 C447.275484,41.6404032 448.007581,42.5287903 448.540887,43.5693548 C449.072823,44.6126613 449.337419,45.8657258 449.337419,47.3312903 C449.337419,48.9709677 449.016613,50.4241935 448.375,51.6882258 C447.730645,52.953629 446.865565,54.0079032 445.779758,54.8496774 C444.689839,55.6928226 443.41621,56.3248387 441.953387,56.7457258 C440.489194,57.1666129 438.959194,57.3791129 437.360645,57.3791129 C435.586613,57.3791129 433.76871,57.1117742 431.904194,56.5812097 C430.041048,56.0465323 428.332823,55.206129 426.780887,54.0504032 L426.780887,47.728871" id="Fill-11" fill="#2F3130"></path>
            <path d="M483.275726,40.4764516 C483.275726,38.8340323 482.99879,37.3054032 482.443548,35.8850806 C481.888306,34.466129 481.112339,33.235 480.114274,32.1916935 C479.117581,31.151129 477.939919,30.3299194 476.588145,29.7308065 C475.233629,29.1303226 473.759839,28.8314516 472.162661,28.8314516 C470.564113,28.8314516 469.090323,29.1303226 467.738548,29.7308065 C466.384032,30.3299194 465.207742,31.151129 464.212419,32.1916935 C463.212984,33.235 462.437016,34.466129 461.881774,35.8850806 C461.327903,37.3054032 461.049597,38.8340323 461.049597,40.4764516 C461.049597,42.118871 461.327903,43.648871 461.881774,45.0678226 C462.437016,46.4867742 463.212984,47.7192742 464.212419,48.7612097 C465.207742,49.8045161 466.384032,50.6243548 467.738548,51.2234677 C469.090323,51.8225806 470.564113,52.1228226 472.162661,52.1228226 C473.759839,52.1228226 475.233629,51.8225806 476.588145,51.2234677 C477.939919,50.6243548 479.117581,49.8045161 480.114274,48.7612097 C481.112339,47.7192742 481.888306,46.4867742 482.443548,45.0678226 C482.99879,43.648871 483.275726,42.118871 483.275726,40.4764516 Z M455.726129,70.4883065 L455.726129,24.3072581 L461.381371,24.3072581 L461.381371,29.4305645 C462.534355,27.6579032 464.132903,26.2362097 466.174274,25.1709677 C468.214274,24.1070968 470.4325,23.5737903 472.827581,23.5737903 C475.134919,23.5737903 477.275,24.0070161 479.247823,24.8734677 C481.222016,25.7358065 482.943952,26.9244355 484.406774,28.431129 C485.869597,29.9405645 487.011613,31.7269355 487.832823,33.788871 C488.655403,35.8521774 489.063952,38.0827419 489.063952,40.4764516 C489.063952,42.8729032 488.655403,45.091129 487.832823,47.131129 C487.011613,49.171129 485.869597,50.9575 484.406774,52.486129 C482.943952,54.018871 481.222016,55.2157258 479.247823,56.0808065 C477.275,56.9458871 475.134919,57.3791129 472.827581,57.3791129 C470.4325,57.3791129 468.225242,56.8883065 466.208548,55.9149194 C464.187742,54.9387903 462.580968,53.5650806 461.381371,51.7883065 L461.381371,70.4883065 L455.726129,70.4883065 Z" id="Fill-12" fill="#2F3130"></path>
            <path d="M509.293952,28.8314516 C507.696774,28.8314516 506.220242,29.1303226 504.868468,29.7308065 C503.515323,30.3299194 502.340403,31.1607258 501.342339,32.2245968 C500.342903,33.2884677 499.568306,34.5333065 499.011694,35.9508871 C498.456452,37.3712097 498.182258,38.8792742 498.182258,40.4764516 C498.182258,42.073629 498.456452,43.5816935 499.011694,44.9992742 C499.568306,46.4209677 500.342903,47.6630645 501.342339,48.7283065 C502.340403,49.7935484 503.515323,50.6243548 504.868468,51.2234677 C506.220242,51.8225806 507.696774,52.1228226 509.293952,52.1228226 C510.889758,52.1228226 512.36629,51.8225806 513.719435,51.2234677 C515.072581,50.6243548 516.2475,49.7935484 517.245565,48.7283065 C518.243629,47.6630645 519.018226,46.4209677 519.573468,44.9992742 C520.12871,43.5816935 520.405645,42.073629 520.405645,40.4764516 C520.405645,38.8792742 520.12871,37.3712097 519.573468,35.9508871 C519.018226,34.5333065 518.243629,33.2884677 517.245565,32.2245968 C516.2475,31.1607258 515.072581,30.3299194 513.719435,29.7308065 C512.36629,29.1303226 510.889758,28.8314516 509.293952,28.8314516 Z M509.293952,23.5737903 C511.734274,23.5737903 513.984032,24.0193548 516.04871,24.905 C518.110645,25.7933871 519.895645,27.0012097 521.40371,28.5325806 C522.913145,30.0625806 524.088065,31.8503226 524.93121,33.8889516 C525.772984,35.9289516 526.195242,38.1252419 526.195242,40.4764516 C526.195242,42.8276613 525.772984,45.0253226 524.93121,47.0639516 C524.088065,49.1066935 522.913145,50.8903226 521.40371,52.4216935 C519.895645,53.9516935 518.110645,55.1622581 516.04871,56.0465323 C513.984032,56.9349194 511.734274,57.3791129 509.293952,57.3791129 C506.853629,57.3791129 504.6025,56.9349194 502.539194,56.0465323 C500.477258,55.1622581 498.690887,53.9516935 497.181452,52.4216935 C495.674758,50.8903226 494.497097,49.1066935 493.656694,47.0639516 C492.813548,45.0253226 492.389919,42.8276613 492.389919,40.4764516 C492.389919,38.1252419 492.813548,35.9289516 493.656694,33.8889516 C494.497097,31.8503226 495.674758,30.0625806 497.181452,28.5325806 C498.690887,27.0012097 500.477258,25.7933871 502.539194,24.905 C504.6025,24.0193548 506.853629,23.5737903 509.293952,23.5737903 Z" id="Fill-13" fill="#2F3130"></path>
            <path d="M539.303065,16.7203226 L539.504597,16.7203226 L539.504597,24.3072581 L548.554355,24.3072581 L548.554355,29.4305645 L539.504597,29.4305645 L539.504597,46.5320161 C539.504597,48.4404032 539.936452,49.8387903 540.801532,50.7244355 C541.667984,51.6114516 543.030726,52.0556452 544.893871,52.0556452 C545.513548,52.0556452 546.157903,51.9775 546.822823,51.8225806 C547.489113,51.6662903 548.064919,51.4112903 548.554355,51.0562097 L548.554355,56.3810484 C547.975806,56.6895161 547.277984,56.9349194 546.458145,57.1117742 C545.636935,57.2872581 544.670403,57.3791129 543.562661,57.3791129 C540.504032,57.3791129 538.10621,56.4893548 536.376048,54.7153226 C534.647258,52.9426613 533.782177,50.4804032 533.782177,47.3312903 L533.782177,29.4305645 L528.191371,29.4305645 L528.191371,28.6984677 L539.303065,16.7203226" id="Fill-14" fill="#2F3130"></path>
            <g id="Group-17" transform="translate(0.000000, 31.532258)">
                <mask id="mask-2" fill="white">
                    <use xlink:href="#path-1"></use>
                </mask>
                <g id="Clip-16"></g>
                <polyline id="Fill-15" fill="url(#linearGradient-3)" mask="url(#mask-2)" points="43.7160484 27.1766935 41.5087903 29.0151613 39.3015323 27.1766935 7.75282258 0.887016129 0.143951613 3.84693548 41.5087903 52.106371 82.8722581 3.84693548 75.2620161 0.887016129 73.7991935 2.10854839 43.7160484 27.1766935"></polyline>
            </g>
            <g id="Group-20" transform="translate(0.000000, 17.822581)">
                <mask id="mask-5" fill="white">
                    <use xlink:href="#path-4"></use>
                </mask>
                <g id="Clip-19"></g>
                <polyline id="Fill-18" fill="url(#linearGradient-6)" mask="url(#mask-5)" points="70.1003226 0.220725806 66.6866129 1.92620968 43.0483871 13.7466935 41.5087903 14.5171774 16.3309677 1.92620968 12.9172581 0.220725806 0.143951613 3.76741935 41.5087903 38.2376613 71.5905645 13.1695161 74.6190323 10.6483065 82.8722581 3.76741935 70.1003226 0.220725806"></polyline>
            </g>
            <g id="Group-23">
                <mask id="mask-8" fill="white">
                    <use xlink:href="#path-7"></use>
                </mask>
                <g id="Clip-22"></g>
                <polyline id="Fill-21" fill="url(#linearGradient-9)" mask="url(#mask-8)" points="74.6012097 6.42572581 62.1898387 4.35693548 41.5087903 0.908951613 8.41637097 6.42572581 0.143951613 7.80354839 13.2709677 14.366371 17.8691935 16.6668548 31.1675806 23.3133065 41.5087903 28.4845968 51.85 23.3133065 65.1470161 16.6668548 69.7452419 14.366371 82.8722581 7.80354839 74.6012097 6.42572581"></polyline>
            </g>
        </g>
    </g>
</svg>